# xmcd
#
# Track frame offsets:
#	150
#	13886
#	26570
#	43273
#	56324
#	67976
#	83656
#	100329
#	110304
#	122493
#	134625
#	153933
#	166415
#	181391
#	190126
#	206158
#	217253
#	231749
#	243142
#	252658
#	269619
#	289401
#	300871
#	315403
#	326855
#	340350
#
# Disc length: 4731
#
# Revision: 1
# Processed by: cddbd v1.5.1PL0 Copyright (c) Steve Scherf et al.
# Submitted via: EasyCDDAExtractor 4.6.0.1
# Normalized: r0:DSETVAR1,TDELIM( - )
#
DISCID=8912791a
DTITLE=Various Artist - ABSOLUTE BEST COUNTRY - Vol.1
DYEAR=2001
DGENRE=Country
TTITLE0=RICKY VAN SHELTON - I'll Leave This World Loving You
TTITLE1=BAILLIE AND THE BOYS - She Deserves You
TTITLE2=DAVID ALLAN COE - I' Ve enjoyed As Much Of This As I Can Stand
TTITLE3=DOLLY PARTON (Duet with Mac Davis) - Wait 'Til I Get You Home
TTITLE4=DON WILLIAMS - Flowers Won't Grow (In Gardens Of Stone)
TTITLE5=EARL THOMAS CONLEY - We Believe In Happy Endings
TTITLE6=ED BRUCE - Fishin' In The Dark
TTITLE7=GEORGE JONES - I'm A One Woman Man
TTITLE8=J.C. CROWLEY - Paint The Town And Hang The Moon To Night
TTITLE9=JANIE FRICKIE - Where Does Love Go (When it's Gone)
TTITLE10=JO-EL SONNIER - Come On Joe
TTITLE11=KAITH WHITLEY - The Birmingham Turnaround
TTITLE12=THE JUDDS - Why Not Me
TTITLE13=THE KENDALLS - Blue Blue Day
TTITLE14=DOLLY PARTON - Save The Last Dance For Me
TTITLE15=WAYLON JENNINGS - I'm On Fire
TTITLE16=LORI YATES - Can't Stop The Girl
TTITLE17=LORRIE MORGAN - Eight Days A Week
TTITLE18=MARY CHAPIN CARPENTER - How Do
TTITLE19=PAUL OVENSTREET - Sowin' Love
TTITLE20=RESTLESS HEART - The Bluests Eyes In Texas
TTITLE21=RICKY SKAGGS - He Was Onto Somethin' (So He Made You)
TTITLE22=RONNIE MILSAP - I Never Expected To See You
TTITLE23=ROSANNE CASH - I Don't Want You To Spoil The Party
TTITLE24=TAMMY WYNETTE - I'm So Afraid Of Losing You Again
TTITLE25=WILLIE NELSON - Nothing I Can Do About It Now
EXTD=
EXTT0=
EXTT1=
EXTT2=
EXTT3=
EXTT4=
EXTT5=
EXTT6=
EXTT7=
EXTT8=
EXTT9=
EXTT10=
EXTT11=
EXTT12=
EXTT13=
EXTT14=
EXTT15=
EXTT16=
EXTT17=
EXTT18=
EXTT19=
EXTT20=
EXTT21=
EXTT22=
EXTT23=
EXTT24=
EXTT25=
PLAYORDER=
